<?xml version="1.0" encoding="iso-8859-1"?>
<!-- Generator: Adobe Illustrator 19.0.0, SVG Export Plug-In . SVG Version: 6.00 Build 0)  -->
<svg version="1.1" id="Layer_1" xmlns="http://www.w3.org/2000/svg" xmlns:xlink="http://www.w3.org/1999/xlink" x="0px" y="0px"
	 viewBox="0 0 502 502" style="enable-background:new 0 0 502 502;" xml:space="preserve">
<g>
	<g>
		<g>
			<path d="M497,0H5C2.239,0,0,2.239,0,5v492c0,2.761,2.239,5,5,5h492c2.761,0,5-2.239,5-5V5C502,2.239,499.761,0,497,0z M492,492
				H10V10h482V492z"/>
			<path d="M280.826,347.292c-2.761,0-5,2.239-5,5v18c0,2.761,2.239,5,5,5c2.761,0,5-2.238,5-5v-18
				C285.826,349.531,283.587,347.292,280.826,347.292z"/>
			<path d="M153.7,273.274h52.49v165.572c0,2.761,2.239,5,5,5h69.636c2.761,0,5-2.239,5-5.001v-32.552c0-2.761-2.239-5-5-5
				s-5,2.239-5,5v27.552H216.19V268.274c0-2.761-2.239-5-5-5H158.7v-59.635h52.491c2.761,0,5-2.239,5-5v-58.481
				c0-39.703,32.303-72.004,72.009-72.004h55.1v52.614h-38.005c-16.249,0-29.469,13.22-29.469,29.47v48.402c0,2.761,2.239,5,5,5
				h60.69l-7.86,59.635h-52.831c-2.761,0-5,2.239-5,5v49.019c0,2.761,2.239,5,5,5s5-2.239,5-5v-44.019h52.215
				c2.509,0,4.629-1.86,4.957-4.347l9.178-69.635c0.188-1.428-0.248-2.867-1.198-3.95c-0.949-1.083-2.319-1.704-3.759-1.704h-61.393
				v-43.402c0-10.736,8.734-19.47,19.469-19.47h43.005c2.761,0,5-2.239,5-5V63.154c0-2.761-2.239-5-5-5h-60.1
				c-45.22,0-82.009,36.787-82.009,82.004v53.481H153.7c-2.761,0-5,2.239-5,5v69.635C148.7,271.035,150.939,273.274,153.7,273.274z"
				/>
			<path d="M52.707,104.293c2.761,0,5-2.239,5-5v-43c0-2.761-2.239-5-5-5c-2.761,0-5,2.239-5,5v43
				C47.707,102.054,49.946,104.293,52.707,104.293z"/>
			<path d="M52.707,454.293c2.761,0,5-2.239,5-5v-300c0-2.761-2.239-5-5-5c-2.761,0-5,2.239-5,5v300
				C47.707,452.054,49.946,454.293,52.707,454.293z"/>
		</g>
	</g>
</g>
<g>
</g>
<g>
</g>
<g>
</g>
<g>
</g>
<g>
</g>
<g>
</g>
<g>
</g>
<g>
</g>
<g>
</g>
<g>
</g>
<g>
</g>
<g>
</g>
<g>
</g>
<g>
</g>
<g>
</g>
</svg>
