<?xml version="1.0" encoding="iso-8859-1"?>
<!-- Generator: Adobe Illustrator 19.0.0, SVG Export Plug-In . SVG Version: 6.00 Build 0)  -->
<svg version="1.1" id="Layer_1" xmlns="http://www.w3.org/2000/svg" xmlns:xlink="http://www.w3.org/1999/xlink" x="0px" y="0px"
	 viewBox="0 0 502 502" style="enable-background:new 0 0 502 502;" xml:space="preserve">
<g>
	<g>
		<g>
			<path d="M497,0H5C2.238,0,0,2.238,0,5v492c0,2.762,2.238,5,5,5h492c2.762,0,5-2.238,5-5V5C502,2.238,499.762,0,497,0z M492,492
				H10V10h482V492z"/>
			<path d="M400,450.191c0,2.762,2.238,5,5,5h43c2.762,0,5-2.238,5-5c0-2.762-2.238-5-5-5h-43
				C402.238,445.191,400,447.429,400,450.191z"/>
			<path d="M55,455.191h300c2.762,0,5-2.238,5-5c0-2.762-2.238-5-5-5H55c-2.762,0-5,2.238-5,5C50,452.953,52.238,455.191,55,455.191
				z"/>
			<path d="M116.683,369.748c0.756,1.496,1.634,5.52,2.129,7.787c0.568,2.607,1.213,5.563,2.109,8.616
				c0.801,2.735,3.167,7.326,10.02,7.326c2.451,0,5.242-0.547,8.486-1.182c4.709-0.92,11.156-2.181,19.188-2.181
				c4.457,0,9.078,0.39,13.727,1.16c8.951,1.49,17.055,7.218,25.641,13.284c18.622,13.168,33.802,18.299,54.142,18.299
				c22.86,0,38.461-8.804,51.911-18.315c8.563-6.054,16.652-11.772,25.602-13.264c4.658-0.77,9.28-1.161,13.739-1.161
				c7.695,0,13.776,0.981,19.197,2.042c3.565,0.7,6.337,1.041,8.477,1.041h0.417c4.765,0,8.264-2.618,9.599-7.177
				c0.878-2.983,1.501-5.755,2.114-8.567c0.42-1.924,1.348-6.173,2.115-7.737c28.672-4.505,44.485-11.074,48.317-20.042
				c1.216-2.786,1.099-6.124-0.307-8.71c-1.279-2.351-3.444-3.887-6.096-4.324c-48.226-7.947-70.416-57.088-71.854-60.386
				l-0.372-0.994c-1.93-5.138-3.04-8.459-1.589-11.873c2.64-6.224,12.87-9.471,19.638-11.618c1.86-0.59,3.785-1.199,5.363-1.819
				c12.885-5.09,19.346-11.475,19.204-18.979c-0.113-5.861-4.764-11.282-11.861-13.838c-2.415-1.002-5.285-1.554-8.087-1.554
				c-1.924,0-4.786,0.265-7.503,1.533c-5.712,2.676-10.824,4.135-15.201,4.338c-2.243-0.107-3.827-0.576-4.863-1.03
				c0.134-2.271,0.28-4.607,0.43-6.998l0.063-1.043c1.574-24.912,3.532-55.916-4.693-74.358
				c-24.366-54.633-76.091-58.879-91.404-58.879c-0.899,0.008-1.8,0.018-2.7,0.03c-1.488,0.018-2.977,0.037-4.464,0.037
				c-15.24,0-66.858,4.243-91.209,58.842c-4.331,9.71-6.267,23.433-6.091,43.187c0.024,2.746,2.259,4.955,4.999,4.955
				c0.015,0,0.03,0,0.046,0c2.761-0.024,4.979-2.283,4.955-5.045c-0.161-18.018,1.548-30.783,5.224-39.023
				c21.898-49.1,68.358-52.915,82.076-52.915c1.529,0,3.06-0.018,4.589-0.038c0.886-0.01,1.771-0.022,2.616-0.029
				c13.75,0,60.317,3.818,82.23,52.951c7.222,16.195,5.35,45.838,3.845,69.672l-0.063,1.045c-0.214,3.408-0.421,6.72-0.594,9.89
				c-0.077,1.403,0.44,2.773,1.425,3.776c1.068,1.088,5.189,4.662,13.388,4.975c0.127,0.006,0.263,0.006,0.39,0
				c5.762-0.219,12.238-1.998,19.242-5.279c1.771-0.825,5.248-0.749,7.574,0.22l0.11,0.045c0.07,0.029,0.143,0.057,0.215,0.082
				c3.42,1.212,5.293,3.298,5.319,4.645c0.038,2.013-3.312,5.707-12.87,9.482c-1.256,0.493-3.017,1.052-4.723,1.592
				c-8.515,2.702-21.384,6.786-25.819,17.243c-3.087,7.267-0.581,13.938,1.434,19.298l0.406,1.087
				c0.03,0.078,0.061,0.156,0.094,0.233c0.997,2.322,24.839,56.495,78.006,66.157c-1.478,2.211-8.503,8.656-41.15,13.701
				c-6.428,0.987-7.953,7.969-9.568,15.364c-0.573,2.627-1.152,5.206-1.938,7.877c-0.001,0-0.003,0-0.005,0h-0.417
				c-1.006,0-2.959-0.148-6.553-0.854c-5.919-1.158-12.574-2.229-21.121-2.229c-5.004,0-10.176,0.436-15.378,1.297
				c-11.215,1.869-20.63,8.525-29.736,14.963c-12.106,8.56-26.075,16.483-46.141,16.483c-18.287,0-31.397-4.462-48.377-16.47
				c-9.542-6.743-18.555-13.111-29.768-14.978c-5.192-0.86-10.361-1.296-15.364-1.296c-9.001,0-15.997,1.368-21.121,2.369
				c-2.608,0.511-5.072,0.993-6.553,0.993c-0.159,0-0.284-0.005-0.383-0.011c-0.013-0.038-0.026-0.081-0.041-0.129
				c-0.798-2.717-1.376-5.37-1.936-7.934c-1.618-7.419-3.147-14.427-9.565-15.413c-32.677-5.047-39.693-11.531-41.159-13.728
				c53.205-9.664,77.014-63.846,78.018-66.188c2.578-6.084,5.066-13.194,1.926-20.593c-4.441-10.467-17.307-14.547-25.889-17.269
				c-1.763-0.557-3.428-1.085-4.646-1.564c-10.82-4.278-13.134-8.273-12.846-9.789c0.467-2.455,5.145-5.053,9.101-5.053
				c0.838,0,1.551,0.126,2.052,0.359c7.526,3.527,14.424,5.315,20.5,5.315c9.016,0,13.437-3.849,14.578-5.029
				c1.919-1.986,1.879-5.165-0.107-7.084c-1.985-1.919-5.137-1.879-7.056,0.106c-0.086,0.082-2.162,2.007-7.415,2.007
				c-4.599,0-10.069-1.471-16.265-4.374c-1.849-0.863-3.966-1.301-6.287-1.301c-7.897,0-17.377,5.041-18.925,13.186
				c-1.084,5.705,1.33,13.972,18.997,20.957c1.543,0.608,3.368,1.186,5.364,1.817c6.768,2.146,16.993,5.39,19.638,11.621
				c1.46,3.442,0.398,7.294-1.919,12.765c-0.917,2.138-23.016,52.444-71.889,60.492c-2.634,0.43-4.791,1.946-6.072,4.266
				c-1.414,2.563-1.556,5.898-0.363,8.719C72.209,358.662,88.019,365.245,116.683,369.748z"/>
			<path d="M156.028,211.191c0.103,0,0.205-0.003,0.308-0.008c2.757-0.168,4.855-2.539,4.688-5.295
				c-0.198-3.252-0.389-6.58-0.551-9.938c-0.132-2.758-2.465-4.891-5.235-4.753c-2.758,0.132-4.886,2.476-4.753,5.235
				c0.164,3.402,0.357,6.77,0.557,10.063C151.204,209.148,153.405,211.191,156.028,211.191z"/>
		</g>
	</g>
</g>
<g>
</g>
<g>
</g>
<g>
</g>
<g>
</g>
<g>
</g>
<g>
</g>
<g>
</g>
<g>
</g>
<g>
</g>
<g>
</g>
<g>
</g>
<g>
</g>
<g>
</g>
<g>
</g>
<g>
</g>
</svg>
