<?xml version="1.0" encoding="iso-8859-1"?>
<!-- Generator: Adobe Illustrator 19.0.0, SVG Export Plug-In . SVG Version: 6.00 Build 0)  -->
<svg version="1.1" id="Layer_1" xmlns="http://www.w3.org/2000/svg" xmlns:xlink="http://www.w3.org/1999/xlink" x="0px" y="0px"
	 viewBox="0 0 502 502" style="enable-background:new 0 0 502 502;" xml:space="preserve">
<g>
	<g>
		<g>
			<path d="M497,0H5C2.239,0,0,2.239,0,5v492c0,2.761,2.239,5,5,5h492c2.761,0,5-2.239,5-5V5C502,2.239,499.761,0,497,0z M492,492
				H10V10h482V492z"/>
			<path d="M277.005,342.596c0.944,0,1.899-0.267,2.746-0.825c44.974-29.632,75.323-77.026,83.264-130.029
				c0.409-2.731-1.473-5.277-4.204-5.686c-2.724-0.409-5.276,1.473-5.686,4.204c-7.521,50.198-36.27,95.088-78.876,123.16
				c-2.305,1.519-2.943,4.62-1.424,6.926C273.786,341.805,275.38,342.596,277.005,342.596z"/>
			<path d="M194.994,371.911c0.173,0,0.348-0.009,0.524-0.028c14.356-1.497,28.526-4.642,42.117-9.346
				c2.61-0.903,3.993-3.751,3.09-6.36c-0.902-2.609-3.749-3.992-6.36-3.09c-12.869,4.454-26.288,7.432-39.883,8.85
				c-2.747,0.287-4.741,2.745-4.455,5.492C190.295,369.999,192.465,371.911,194.994,371.911z"/>
			<path d="M406,52h43c2.761,0,5-2.239,5-5s-2.239-5-5-5h-43c-2.761,0-5,2.239-5,5S403.239,52,406,52z"/>
			<path d="M56,52h300c2.761,0,5-2.239,5-5s-2.239-5-5-5H56c-2.761,0-5,2.239-5,5S53.239,52,56,52z"/>
			<path d="M167.905,183.738c0.679,0.313,1.391,0.461,2.093,0.461c1.889,0,3.698-1.077,4.542-2.906
				c1.157-2.507,0.063-5.478-2.444-6.635c-9.191-4.242-18.068-9.111-26.384-14.47c-2.323-1.496-5.416-0.826-6.912,1.495
				c-1.495,2.322-0.826,5.416,1.495,6.912C149.003,174.206,158.292,179.301,167.905,183.738z"/>
			<path d="M241.565,182.964c0,3.805,0.272,7.601,0.811,11.345c-6.976-0.715-19.113-2.434-34.065-6.501
				c-2.665-0.728-5.412,0.847-6.137,3.512c-0.725,2.664,0.847,5.412,3.512,6.137c23.557,6.408,40.723,7.259,42.603,7.335
				c1.545,0.056,3.059-0.606,4.054-1.809s1.371-2.801,1.017-4.322c-1.19-5.108-1.794-10.389-1.794-15.697
				c0-38.201,31.097-69.279,69.321-69.279c19.379,0,37.349,7.789,50.599,21.934c1.276,1.361,3.204,1.9,4.999,1.396
				c3.569-1,7.206-2.119,11.124-3.423c10.394-3.466,19.3-7.148,25.754-10.04c-7.686,14.195-23.59,25.443-26.128,27.18
				c-2.074,0.96-3.094,3.162-2.646,5.433c0.461,2.343,2.675,3.961,5.064,3.961c0.153,0,0.315-0.007,0.482-0.022
				c0.049-0.004,0.098-0.008,0.147-0.013c10.021-1.001,20.043-3.474,27.937-5.85c-8.064,8.725-19.111,18.171-26.292,23.823
				c-1.26,0.991-1.968,2.527-1.904,4.13c0.113,2.808,0.17,5.671,0.17,8.508c0,114.023-92.766,206.788-206.79,206.788
				c-31.973,0-63.236-7.326-91.561-21.331c53.387-0.763,89.108-32.409,90.795-33.932c1.483-1.34,2.026-3.433,1.381-5.324
				c-0.645-1.892-2.353-3.217-4.345-3.372c-40.008-3.11-55.847-28.327-61.317-40.965c16.48,1.304,26.685-2.461,27.175-2.646
				c2.057-0.779,3.364-2.811,3.219-5.006c-0.145-2.195-1.708-4.038-3.85-4.539c-46.159-10.803-53.814-45.202-54.864-60.749
				c13.447,5.808,26.255,6.389,26.891,6.414c2.105,0.081,4.055-1.173,4.841-3.139c0.786-1.966,0.25-4.214-1.34-5.612
				c-42.158-37.08-30.579-72.614-23.744-86.054c4.405,4.977,9.063,9.759,13.904,14.273c2.02,1.884,5.184,1.773,7.066-0.247
				c1.883-2.02,1.773-5.184-0.247-7.067c-6.241-5.818-12.16-12.106-17.596-18.688c-0.982-1.189-2.472-1.865-4-1.814
				c-1.542,0.044-2.977,0.798-3.889,2.043c-0.396,0.54-9.711,13.452-11.616,32.947c-1.504,15.395,1.53,37.543,22.023,60.708
				c-4.654-1.32-9.845-3.285-14.735-6.207c-1.474-0.881-3.297-0.944-4.828-0.167c-1.531,0.778-2.556,2.286-2.715,3.996
				c-0.06,0.649-1.396,16.092,5.633,33.578c5.043,12.545,15.268,27.991,35.965,38.16c-3.008-0.139-6.298-0.467-9.835-1.066
				c-1.654-0.28-3.337,0.288-4.483,1.512s-1.602,2.941-1.215,4.573c0.125,0.529,3.198,13.112,13.727,26.259
				c8.348,10.425,22.943,22.952,46.793,27.78c-15.972,10.795-51.232,29.592-95.738,22.948c-2.641-0.393-5.11,1.355-5.631,3.971
				c-0.422,2.119,0.57,4.206,2.338,5.266c34.6,21.914,74.639,33.496,115.8,33.496c119.538,0,216.789-97.25,216.788-216.786
				c0-2.118-0.031-4.25-0.091-6.366c7.956-6.405,30.033-24.924,36.246-37.98c0.889-1.868,0.534-4.092-0.891-5.592
				c-1.426-1.5-3.629-1.966-5.541-1.174c-0.141,0.058-9.808,4.034-22.225,7.18c8.283-8.097,17.219-19.445,19.337-32.139
				c0.314-1.878-0.468-3.771-2.014-4.882c-1.546-1.112-3.591-1.247-5.271-0.352c-0.147,0.079-14.948,7.921-35.296,14.707
				c-2.726,0.906-5.308,1.72-7.822,2.463c-14.779-14.579-34.919-22.883-55.739-22.883
				C277.148,103.685,241.565,139.25,241.565,182.964z"/>
		</g>
	</g>
</g>
<g>
</g>
<g>
</g>
<g>
</g>
<g>
</g>
<g>
</g>
<g>
</g>
<g>
</g>
<g>
</g>
<g>
</g>
<g>
</g>
<g>
</g>
<g>
</g>
<g>
</g>
<g>
</g>
<g>
</g>
</svg>
