<svg xmlns="http://www.w3.org/2000/svg" viewBox="0 0 502 502"><path fill="#3a559f" d="M5 5h492v492H5z"/><path d="M497 502H5a5 5 0 0 1-5-5V5a5 5 0 0 1 5-5h492a5 5 0 0 1 5 5v492a5 5 0 0 1-5 5zM10 492h482V10H10v482z"/><path d="M280.826 268.275h57.215l9.178-69.636h-66.393v-48.402c0-13.515 10.954-24.47 24.469-24.47H348.3V63.154h-60.1c-42.534 0-77.009 34.475-77.009 77.004v58.481H153.7v69.636h57.49v170.571h69.636V268.275z" fill="#fff"/><path d="M280.826 443.846H211.19a5 5 0 0 1-5-5V273.274H153.7a5 5 0 0 1-5-5v-69.635a5 5 0 0 1 5-5h52.49v-53.481c0-45.217 36.789-82.004 82.009-82.004h60.1a5 5 0 0 1 5 5v62.613a5 5 0 0 1-5 5h-43.005c-10.735 0-19.469 8.734-19.469 19.47v43.402h61.393a4.998 4.998 0 0 1 4.957 5.654l-9.178 69.635a5 5 0 0 1-4.957 4.347h-52.215v44.019a5 5 0 0 1-10 0v-49.019a5 5 0 0 1 5-5h52.831l7.86-59.635h-60.69a5 5 0 0 1-5-5v-48.402c0-16.25 13.22-29.47 29.469-29.47H343.3V68.154h-55.1c-39.706 0-72.009 32.301-72.009 72.004v58.481a5 5 0 0 1-5 5H158.7v59.635h52.49a5 5 0 0 1 5 5v165.571h59.636v-27.552a5 5 0 0 1 10 0v32.552a5 5 0 0 1-5 5.001zm0-68.554a5 5 0 0 1-5-5v-18a5 5 0 0 1 10 0v18a5 5 0 0 1-5 5zM52.707 104.293a5 5 0 0 1-5-5v-43a5 5 0 0 1 10 0v43a5 5 0 0 1-5 5zm0 350a5 5 0 0 1-5-5v-300a5 5 0 0 1 10 0v300a5 5 0 0 1-5 5z"/></svg>