<svg xmlns="http://www.w3.org/2000/svg" viewBox="0 0 502 502"><path d="M497 0H5a5 5 0 0 0-5 5v492a5 5 0 0 0 5 5h492a5 5 0 0 0 5-5V5a5 5 0 0 0-5-5zm-5 492H10V10h482v482z"/><path d="M280.826 347.292a5 5 0 0 0-5 5v18a5 5 0 0 0 10 0v-18a5 5 0 0 0-5-5z"/><path d="M153.7 273.274h52.49v165.572a5 5 0 0 0 5 5h69.636a5 5 0 0 0 5-5.001v-32.552a5 5 0 0 0-10 0v27.552H216.19V268.274a5 5 0 0 0-5-5H158.7v-59.635h52.491a5 5 0 0 0 5-5v-58.481c0-39.703 32.303-72.004 72.009-72.004h55.1v52.614h-38.005c-16.249 0-29.469 13.22-29.469 29.47v48.402a5 5 0 0 0 5 5h60.69l-7.86 59.635h-52.831a5 5 0 0 0-5 5v49.019a5 5 0 0 0 10 0v-44.019h52.215a5 5 0 0 0 4.957-4.347l9.178-69.635a4.999 4.999 0 0 0-4.957-5.654h-61.393v-43.402c0-10.736 8.734-19.47 19.469-19.47h43.005a5 5 0 0 0 5-5V63.154a5 5 0 0 0-5-5h-60.1c-45.22 0-82.009 36.787-82.009 82.004v53.481H153.7a5 5 0 0 0-5 5v69.635a5 5 0 0 0 5 5zM52.707 104.293a5 5 0 0 0 5-5v-43a5 5 0 0 0-10 0v43a5 5 0 0 0 5 5zm0 350a5 5 0 0 0 5-5v-300a5 5 0 0 0-10 0v300a5 5 0 0 0 5 5z"/></svg>