<svg xmlns="http://www.w3.org/2000/svg" viewBox="0 0 502 502"><path d="M497 0H5a5 5 0 0 0-5 5v492a5 5 0 0 0 5 5h492a5 5 0 0 0 5-5V5a5 5 0 0 0-5-5zm-5 492H10V10h482v482z"/><path d="M169.817 417.314h162.366c46.941 0 85.13-38.189 85.13-85.132V169.817c0-46.942-38.19-85.132-85.131-85.132H169.817c-46.942 0-85.132 38.19-85.132 85.132v162.365c0 46.942 38.19 85.132 85.132 85.132zM94.685 169.818c0-41.428 33.704-75.132 75.132-75.132v-.001h162.365c41.428 0 75.131 33.704 75.131 75.132v162.366c0 41.428-33.703 75.132-75.131 75.132H169.817c-41.428 0-75.132-33.704-75.132-75.132V169.818z"/><path d="M169.817 465.467h162.366c73.494 0 133.285-59.791 133.284-133.285V169.817c0-73.493-59.791-133.285-133.285-133.285H169.817c-73.493 0-133.285 59.792-133.285 133.285v162.365c0 73.493 59.792 133.285 133.285 133.285zM46.532 169.818c0-67.98 55.306-123.285 123.285-123.285v-.001h162.365c67.979 0 123.285 55.306 123.285 123.285v162.366c0 67.98-55.306 123.285-123.285 123.285H169.817c-67.98 0-123.285-55.306-123.285-123.285V169.818z"/><path d="M350.968 173c12.113 0 21.968-9.854 21.968-21.968s-9.854-21.968-21.968-21.968S329 138.918 329 151.032 338.854 173 350.968 173zm0-33.936c6.598 0 11.968 5.369 11.968 11.968S357.567 163 350.968 163 339 157.631 339 151.032s5.369-11.968 11.968-11.968zM175.333 381a5 5 0 1 0 0-10C150.888 371 131 351.112 131 326.666V236a5 5 0 0 0-10 0v90.667C121 356.626 145.374 381 175.333 381zM126 200a5 5 0 0 0 5-5v-19.667a5 5 0 0 0-10 0V195a5 5 0 0 0 5 5zm201.922 17.027a5 5 0 1 0 9.141-4.055 94.242 94.242 0 0 0-13.805-22.179 5 5 0 0 0-7.678 6.408 84.234 84.234 0 0 1 12.342 19.826zM251 199.287c-28.514 0-51.713 23.199-51.713 51.713s23.198 51.713 51.713 51.713 51.714-23.199 51.714-51.713-23.2-51.713-51.714-51.713zm0 93.426c-23.001 0-41.713-18.712-41.713-41.713s18.712-41.713 41.713-41.713 41.714 18.712 41.714 41.713-18.713 41.713-41.714 41.713z"/><path d="M251 345.092c51.883 0 94.092-42.21 94.093-94.092a5 5 0 1 0-10 0c0 46.368-37.724 84.092-84.092 84.092S166.909 297.368 166.909 251s37.724-84.092 84.092-84.092c12.534 0 24.599 2.704 35.86 8.036a5 5 0 0 0 4.279-9.038c-12.61-5.971-26.115-8.998-40.14-8.998-51.883 0-94.092 42.209-94.092 94.092s42.21 94.092 94.092 94.092z"/></svg>