<svg xmlns="http://www.w3.org/2000/svg" viewBox="0 0 502 502"><path fill="#f2484b" d="M5 5h492v492H5z"/><path d="M497 502H5a5 5 0 0 1-5-5V5a5 5 0 0 1 5-5h492a5 5 0 0 1 5 5v492a5 5 0 0 1-5 5zM10 492h482V10H10v482z"/><path d="M332.183 460.467H169.817c-70.737 0-128.284-57.548-128.284-128.284V169.817c0-70.737 57.548-128.284 128.284-128.284h162.366c70.737 0 128.285 57.548 128.285 128.284v162.366c0 70.736-57.549 128.284-128.285 128.284zM169.817 89.686c-44.185 0-80.132 35.947-80.132 80.132v162.366c0 44.185 35.947 80.132 80.132 80.132h162.366c44.185 0 80.131-35.947 80.131-80.132V169.817c0-44.185-35.946-80.132-80.131-80.132l-162.366.001z" fill="#fff"/><path d="M332.183 465.467H169.817c-73.493 0-133.285-59.792-133.285-133.285V169.817c0-73.493 59.792-133.285 133.285-133.285h162.365c73.494 0 133.285 59.792 133.285 133.285v162.365c.001 73.494-59.79 133.285-133.284 133.285zM169.817 46.533c-67.979 0-123.285 55.305-123.285 123.285v162.365c0 67.979 55.305 123.285 123.285 123.285h162.365c67.979 0 123.285-55.305 123.285-123.285V169.817c0-67.979-55.306-123.285-123.285-123.285H169.817v.001zm162.366 370.781H169.817c-46.942 0-85.132-38.19-85.132-85.132V169.817c0-46.942 38.19-85.132 85.132-85.132h162.365c46.941 0 85.131 38.19 85.131 85.132v162.365c0 46.943-38.189 85.132-85.13 85.132zM169.817 94.686c-41.428 0-75.132 33.704-75.132 75.132v162.365c0 41.428 33.704 75.132 75.132 75.132h162.365c41.428 0 75.131-33.704 75.131-75.132V169.817c0-41.428-33.703-75.132-75.131-75.132l-162.365.001z"/><path d="M251 340.092c-49.125 0-89.092-39.966-89.092-89.092s39.966-89.092 89.092-89.092c49.125 0 89.092 39.966 89.092 89.092S300.125 340.092 251 340.092zm0-135.806c-25.758 0-46.714 20.956-46.714 46.714s20.956 46.714 46.714 46.714 46.714-20.956 46.714-46.714-20.956-46.714-46.714-46.714zM350.968 168c-9.356 0-16.968-7.612-16.968-16.968s7.612-16.968 16.968-16.968 16.968 7.612 16.968 16.968S360.324 168 350.968 168z" fill="#fff"/><path d="M350.968 173C338.854 173 329 163.146 329 151.032s9.854-21.968 21.968-21.968 21.968 9.854 21.968 21.968S363.081 173 350.968 173zm0-33.936c-6.599 0-11.968 5.369-11.968 11.968S344.369 163 350.968 163s11.968-5.369 11.968-11.968-5.37-11.968-11.968-11.968zM175.333 381C145.374 381 121 356.626 121 326.667V236a5 5 0 0 1 10 0v90.666C131 351.112 150.888 371 175.333 371a5 5 0 0 1 0 10zM126 200a5 5 0 0 1-5-5v-19.667a5 5 0 0 1 10 0V195a5 5 0 0 1-5 5zm125 145.092c-51.882 0-94.092-42.209-94.092-94.092s42.209-94.092 94.092-94.092c14.025 0 27.53 3.027 40.14 8.998a5 5 0 1 1-4.279 9.038c-11.261-5.332-23.326-8.036-35.86-8.036-46.368 0-84.092 37.724-84.092 84.092s37.724 84.092 84.092 84.092 84.092-37.724 84.092-84.092a5 5 0 1 1 10 0c-.001 51.882-42.21 94.092-94.093 94.092zm0-42.379c-28.515 0-51.713-23.199-51.713-51.713s23.199-51.713 51.713-51.713 51.714 23.199 51.714 51.713-23.199 51.713-51.714 51.713zm0-93.426c-23.001 0-41.713 18.712-41.713 41.713s18.712 41.713 41.713 41.713 41.714-18.712 41.714-41.713-18.713-41.713-41.714-41.713zm81.495 10.714a5 5 0 0 1-4.573-2.974 84.234 84.234 0 0 0-12.342-19.826 5 5 0 0 1 7.678-6.408 94.242 94.242 0 0 1 13.805 22.179 5 5 0 0 1-4.568 7.029z"/></svg>