<svg xmlns="http://www.w3.org/2000/svg" viewBox="0 0 502 502"><path d="M497 0H5a5 5 0 0 0-5 5v492a5 5 0 0 0 5 5h492a5 5 0 0 0 5-5V5a5 5 0 0 0-5-5zm-5 492H10V10h482v482z"/><path d="M400 450.191a5 5 0 0 0 5 5h43a5 5 0 0 0 5-5 5 5 0 0 0-5-5h-43a5 5 0 0 0-5 5zm-345 5h300a5 5 0 0 0 5-5 5 5 0 0 0-5-5H55a5 5 0 0 0-5 5 5 5 0 0 0 5 5zm61.683-85.443c.756 1.496 1.634 5.52 2.129 7.787.568 2.607 1.213 5.563 2.109 8.616.801 2.735 3.167 7.326 10.02 7.326 2.451 0 5.242-.547 8.486-1.182 4.709-.92 11.156-2.181 19.188-2.181 4.457 0 9.078.39 13.727 1.16 8.951 1.49 17.055 7.218 25.641 13.284 18.622 13.168 33.802 18.299 54.142 18.299 22.86 0 38.461-8.804 51.911-18.315 8.563-6.054 16.652-11.772 25.602-13.264 4.658-.77 9.28-1.161 13.739-1.161 7.695 0 13.776.981 19.197 2.042 3.565.7 6.337 1.041 8.477 1.041h.417c4.765 0 8.264-2.618 9.599-7.177.878-2.983 1.501-5.755 2.114-8.567.42-1.924 1.348-6.173 2.115-7.737 28.672-4.505 44.485-11.074 48.317-20.042 1.216-2.786 1.099-6.124-.307-8.71-1.279-2.351-3.444-3.887-6.096-4.324-48.226-7.947-70.416-57.088-71.854-60.386l-.372-.994c-1.93-5.138-3.04-8.459-1.589-11.873 2.64-6.224 12.87-9.471 19.638-11.618 1.86-.59 3.785-1.199 5.363-1.819 12.885-5.09 19.346-11.475 19.204-18.979-.113-5.861-4.764-11.282-11.861-13.838-2.415-1.002-5.285-1.554-8.087-1.554-1.924 0-4.786.265-7.503 1.533-5.712 2.676-10.824 4.135-15.201 4.338-2.243-.107-3.827-.576-4.863-1.03.134-2.271.28-4.607.43-6.998l.063-1.043c1.574-24.912 3.532-55.916-4.693-74.358-24.366-54.633-76.091-58.879-91.404-58.879-.899.008-1.8.018-2.7.03-1.488.018-2.977.037-4.464.037-15.24 0-66.858 4.243-91.209 58.842-4.331 9.71-6.267 23.433-6.091 43.187a5 5 0 0 0 4.999 4.955h.046a5 5 0 0 0 4.955-5.045c-.161-18.018 1.548-30.783 5.224-39.023 21.898-49.1 68.358-52.915 82.076-52.915 1.529 0 3.06-.018 4.589-.038.886-.01 1.771-.022 2.616-.029 13.75 0 60.317 3.818 82.23 52.951 7.222 16.195 5.35 45.838 3.845 69.672l-.063 1.045c-.214 3.408-.421 6.72-.594 9.89a4.997 4.997 0 0 0 1.425 3.776c1.068 1.088 5.189 4.662 13.388 4.975.127.006.263.006.39 0 5.762-.219 12.238-1.998 19.242-5.279 1.771-.825 5.248-.749 7.574.22l.11.045c.07.029.143.057.215.082 3.42 1.212 5.293 3.298 5.319 4.645.038 2.013-3.312 5.707-12.87 9.482-1.256.493-3.017 1.052-4.723 1.592-8.515 2.702-21.384 6.786-25.819 17.243-3.087 7.267-.581 13.938 1.434 19.298l.406 1.087c.03.078.061.156.094.233.997 2.322 24.839 56.495 78.006 66.157-1.478 2.211-8.503 8.656-41.15 13.701-6.428.987-7.953 7.969-9.568 15.364-.573 2.627-1.152 5.206-1.938 7.877h-.422c-1.006 0-2.959-.148-6.553-.854-5.919-1.158-12.574-2.229-21.121-2.229-5.004 0-10.176.436-15.378 1.297-11.215 1.869-20.63 8.525-29.736 14.963-12.106 8.56-26.075 16.483-46.141 16.483-18.287 0-31.397-4.462-48.377-16.47-9.542-6.743-18.555-13.111-29.768-14.978-5.192-.86-10.361-1.296-15.364-1.296-9.001 0-15.997 1.368-21.121 2.369-2.608.511-5.072.993-6.553.993-.159 0-.284-.005-.383-.011l-.041-.129c-.798-2.717-1.376-5.37-1.936-7.934-1.618-7.419-3.147-14.427-9.565-15.413-32.677-5.047-39.693-11.531-41.159-13.728 53.205-9.664 77.014-63.846 78.018-66.188 2.578-6.084 5.066-13.194 1.926-20.593-4.441-10.467-17.307-14.547-25.889-17.269-1.763-.557-3.428-1.085-4.646-1.564-10.82-4.278-13.134-8.273-12.846-9.789.467-2.455 5.145-5.053 9.101-5.053.838 0 1.551.126 2.052.359 7.526 3.527 14.424 5.315 20.5 5.315 9.016 0 13.437-3.849 14.578-5.029 1.919-1.986 1.879-5.165-.107-7.084a4.983 4.983 0 0 0-7.056.106c-.086.082-2.162 2.007-7.415 2.007-4.599 0-10.069-1.471-16.265-4.374-1.849-.863-3.966-1.301-6.287-1.301-7.897 0-17.377 5.041-18.925 13.186-1.084 5.705 1.33 13.972 18.997 20.957 1.543.608 3.368 1.186 5.364 1.817 6.768 2.146 16.993 5.39 19.638 11.621 1.46 3.442.398 7.294-1.919 12.765-.917 2.138-23.016 52.444-71.889 60.492-2.634.43-4.791 1.946-6.072 4.266-1.414 2.563-1.556 5.898-.363 8.719 3.857 9.031 19.667 15.614 48.331 20.117z"/><path d="M156.028 211.191a5.002 5.002 0 0 0 4.996-5.303c-.198-3.252-.389-6.58-.551-9.938a4.989 4.989 0 0 0-5.235-4.753 4.999 4.999 0 0 0-4.753 5.235c.164 3.402.357 6.77.557 10.063a5 5 0 0 0 4.986 4.696z"/></svg>