<svg xmlns="http://www.w3.org/2000/svg" viewBox="0 0 502 502"><path fill="#ff6a22" d="M5 5h492v492H5z"/><path d="M497 502H5a5 5 0 0 1-5-5V5a5 5 0 0 1 5-5h492a5 5 0 0 1 5 5v492a5 5 0 0 1-5 5zM10 492h482V10H10v482z"/><path d="M57.922 321.104c-3.367 0-6.237-2.594-6.677-6.032l-.041-.316v-74.143l.045-.332c.461-3.42 3.33-5.999 6.673-5.999 3.387 0 6.267 2.599 6.698 6.046l.039.31v74.104l-.037.302c-.429 3.512-3.247 6.06-6.7 6.06z" fill="#fff"/><path d="M57.922 239.283c.891 0 1.616.7 1.737 1.667v73.488c-.121.993-.846 1.667-1.737 1.667-.846 0-1.591-.674-1.718-1.667V240.95c.127-.942.872-1.667 1.718-1.667m0-10c-5.835 0-10.834 4.441-11.628 10.331l-.09.665v74.796l.081.632c.758 5.928 5.761 10.398 11.637 10.398 5.924 0 10.938-4.497 11.664-10.459l.073-.602v-74.716l-.077-.617c-.743-5.946-5.756-10.428-11.66-10.428z"/><path d="M90.578 329.33c-3.882 0-7.143-3.088-7.424-7.03l-.013-.178v-89.445l.012-.173c.279-4.013 3.471-7.039 7.424-7.039 3.875 0 7.06 2.985 7.411 6.945l.02.22v89.541l-.021.225c-.358 3.953-3.543 6.934-7.409 6.934z" fill="#fff"/><path d="M90.578 230.465c1.266 0 2.309 1.018 2.43 2.386v89.094c-.121 1.336-1.164 2.386-2.43 2.386-1.292 0-2.341-1.05-2.437-2.386V232.85c.096-1.367 1.146-2.385 2.437-2.385m0-10c-6.503 0-11.956 5.135-12.412 11.69l-.024.347V322.3l.025.355c.467 6.546 5.919 11.674 12.411 11.674 6.471 0 11.797-4.937 12.389-11.484l.041-.45v-89.986l-.039-.44c-.58-6.558-5.907-11.504-12.391-11.504z"/><path d="M123.731 330.399c-4.299 0-7.87-3.422-8.128-7.791l-.009-.147V209.668l.008-.146c.256-4.385 3.826-7.82 8.128-7.82 4.36 0 7.929 3.454 8.125 7.864l.005.222v112.646l-.009.146c-.255 4.385-3.823 7.819-8.12 7.819z" fill="#fff"/><path d="M123.731 206.703c1.661 0 3.054 1.368 3.13 3.086v112.5c-.102 1.743-1.469 3.111-3.13 3.111-1.667 0-3.035-1.368-3.137-3.086v-112.5c.102-1.744 1.47-3.111 3.137-3.111m3.13 115.585v.025-.025m-3.13-125.585c-6.947 0-12.71 5.503-13.12 12.529l-.017.291v113.088l.017.295c.415 7.006 6.178 12.494 13.119 12.494 6.943 0 12.703-5.503 13.113-12.529l.017-.291V209.568l-.01-.221c-.313-7.091-6.076-12.644-13.119-12.644z"/><path d="M157.424 330.399c-4.772 0-8.646-3.777-8.82-8.599l-.003-.181V187.081l.003-.091c.174-4.836 4.048-8.624 8.82-8.624 4.789 0 8.677 3.788 8.853 8.623l.003.182v134.543l-.006.119c-.229 4.804-4.117 8.566-8.85 8.566z" fill="#fff"/><path d="M157.424 183.367c2.093 0 3.779 1.692 3.855 3.804v134.424c-.102 2.138-1.762 3.805-3.855 3.805-2.061 0-3.747-1.667-3.823-3.779v-134.45c.076-2.112 1.762-3.804 3.823-3.804m3.856 138.228v.026-.026m-3.856-148.228c-7.476 0-13.545 5.905-13.817 13.444l-.007.18V321.8l.007.18c.271 7.525 6.34 13.419 13.817 13.419 7.407 0 13.489-5.855 13.844-13.329l.011-.237V186.99l-.007-.181c-.272-7.538-6.355-13.442-13.848-13.442z"/><path d="M191.646 330.443c-5.145 0-9.417-4.215-9.522-9.396l-.024-134.648c.157-5.271 4.35-9.4 9.546-9.4s9.39 4.129 9.546 9.4v134.672c-.159 5.256-4.353 9.372-9.546 9.372z" fill="#fff"/><path d="M191.645 181.999c2.513 0 4.473 1.991 4.549 4.549V320.92c-.077 2.513-2.036 4.523-4.549 4.523-2.456 0-4.473-2.01-4.523-4.498l-.026-134.398c.077-2.557 2.094-4.548 4.549-4.548m4.549 138.921v.025-.025m-4.549-148.921c-7.917 0-14.306 6.26-14.544 14.251l-.005.15v.15l.026 134.398v.101l.002.101c.161 7.882 6.675 14.294 14.521 14.294 7.913 0 14.302-6.246 14.544-14.219l.005-.152V186.398l-.004-.149c-.239-7.991-6.628-14.25-14.545-14.25z"/><path d="M227.356 330.597c-3.018 0-5.881-1.349-7.855-3.699a10.148 10.148 0 0 1-2.382-6.07l-.005-.429V173.104c0-3.448 1.75-6.648 4.681-8.559 1.608-1.074 3.547-1.658 5.561-1.658 2.078 0 4.063.618 5.742 1.789 2.74 1.829 4.453 4.975 4.5 8.356l-.002 147.516c-.095 2.694-1.184 5.207-3.065 7.075a10.192 10.192 0 0 1-7.175 2.974z" fill="#fff"/><path d="M227.356 167.888a5 5 0 0 1 2.882.891 5.284 5.284 0 0 1 2.36 4.326v147.269a5.481 5.481 0 0 1-1.591 3.703 5.169 5.169 0 0 1-3.652 1.52c-1.616 0-3.028-.725-4.027-1.915a5.147 5.147 0 0 1-1.215-3.079V173.105c0-1.813.967-3.429 2.411-4.371a5.005 5.005 0 0 1 2.832-.846m0-10c-2.987 0-5.869.864-8.338 2.499-4.324 2.841-6.904 7.591-6.904 12.718v147.72l.01.223a15.182 15.182 0 0 0 3.564 9.084c2.926 3.473 7.177 5.464 11.668 5.464a15.25 15.25 0 0 0 10.731-4.457c2.767-2.764 4.366-6.46 4.505-10.414l.006-.176V173.034l-.001-.071a15.291 15.291 0 0 0-6.72-12.443 14.959 14.959 0 0 0-8.521-2.632z"/><path d="M264.095 332.469c-3.06-.337-5.446-2.836-5.497-6.095V158.611c.051-3.067 1.069-4.673 4.899-6.194 9.867-3.98 21.052-6.326 32.555-6.326 46.895 0 85.341 37.362 89.418 85.002a49.152 49.152 0 0 1 19.659-4.105c28.082 0 50.871 23.652 50.871 52.856s-22.789 52.625-50.871 52.625H264.095z" fill="#fff"/><path d="M405.129 337.469a5 5 0 1 1 0-10c25.293 0 45.871-21.364 45.871-47.624 0-26.388-20.578-47.856-45.871-47.856a43.989 43.989 0 0 0-17.663 3.688 5.001 5.001 0 0 1-6.979-4.157c-3.924-45.852-40.224-80.428-84.437-80.428-10.4 0-21.011 2.063-30.684 5.963-1.111.441-1.557.745-1.706.865a4.359 4.359 0 0 0-.064.774v167.68c.011.643.448.987.877 1.095H328a5 5 0 1 1 0 10h-63.905a5 5 0 0 1-.547-.03c-5.675-.625-9.859-5.245-9.949-10.986V158.612c.088-5.348 2.572-8.666 8.055-10.841 10.824-4.365 22.728-6.679 34.398-6.679 23.879 0 46.687 9.242 64.223 26.023 15.835 15.153 26.14 35.242 29.421 57.117a53.846 53.846 0 0 1 15.434-2.244c30.807 0 55.871 25.954 55.871 57.856-.001 31.775-25.064 57.625-55.872 57.625z"/><path d="M375 337.469h-23a5 5 0 1 1 0-10h23a5 5 0 1 1 0 10zm70 123.722h-43a5 5 0 1 1 0-10h43a5 5 0 1 1 0 10zm-93 0H52a5 5 0 1 1 0-10h300a5 5 0 1 1 0 10z"/></svg>