<svg xmlns="http://www.w3.org/2000/svg" viewBox="0 0 502 502"><path d="M497 0H5a5 5 0 0 0-5 5v492a5 5 0 0 0 5 5h492a5 5 0 0 0 5-5V5a5 5 0 0 0-5-5zm-5 492H10V10h482v482z"/><path d="M57.922 326.105c5.924 0 10.938-4.497 11.664-10.459l.073-.602v-74.716l-.077-.617c-.743-5.946-5.756-10.428-11.66-10.428-5.835 0-10.834 4.441-11.628 10.331l-.09.665v74.796l.081.632c.758 5.928 5.761 10.398 11.637 10.398zm-1.718-85.155c.127-.942.872-1.667 1.718-1.667.891 0 1.616.7 1.737 1.667v73.488c-.121.993-.846 1.667-1.737 1.667-.846 0-1.591-.674-1.718-1.667V240.95zm34.374 93.379c6.471 0 11.797-4.937 12.389-11.484l.041-.45v-89.986l-.039-.44c-.58-6.558-5.907-11.504-12.391-11.504-6.503 0-11.956 5.135-12.412 11.69l-.024.347V322.3l.025.355c.467 6.546 5.919 11.674 12.411 11.674zM88.141 232.85c.096-1.367 1.146-2.385 2.437-2.385 1.266 0 2.309 1.018 2.43 2.386v89.094c-.121 1.336-1.164 2.386-2.43 2.386-1.292 0-2.341-1.05-2.437-2.386V232.85zM123.73 335.4c6.943 0 12.703-5.503 13.113-12.529l.017-.291V209.568l-.01-.221c-.313-7.091-6.076-12.644-13.119-12.644-6.947 0-12.71 5.503-13.12 12.529l-.017.291v113.088l.017.295c.415 7.006 6.178 12.494 13.119 12.494zm-3.136-125.586c.102-1.744 1.47-3.111 3.137-3.111 1.661 0 3.054 1.368 3.13 3.086v112.5c-.102 1.743-1.469 3.111-3.13 3.111-1.667 0-3.035-1.368-3.137-3.086v-112.5zm36.83 125.585c7.407 0 13.489-5.855 13.844-13.329l.011-.237V186.99l-.007-.181c-.272-7.538-6.355-13.442-13.848-13.442-7.476 0-13.545 5.905-13.817 13.444l-.007.18V321.8l.007.18c.271 7.525 6.34 13.419 13.817 13.419zm-3.823-148.228c.076-2.112 1.762-3.804 3.823-3.804 2.093 0 3.779 1.692 3.855 3.804v134.424c-.102 2.138-1.762 3.805-3.855 3.805-2.061 0-3.747-1.667-3.823-3.779v-134.45zm23.521 133.878l.002.101c.161 7.882 6.675 14.294 14.521 14.294 7.913 0 14.302-6.246 14.544-14.219l.005-.152V186.398l-.004-.149c-.239-7.991-6.628-14.25-14.545-14.25s-14.306 6.26-14.544 14.251l-.005.15v.15l.026 134.398v.101zm14.523-139.05c2.513 0 4.473 1.991 4.549 4.549V320.92c-.077 2.513-2.036 4.523-4.549 4.523-2.456 0-4.473-2.01-4.523-4.498l-.026-134.398c.077-2.557 2.094-4.548 4.549-4.548zm24.043 148.133c2.926 3.473 7.177 5.464 11.668 5.464a15.25 15.25 0 0 0 10.731-4.457c2.767-2.764 4.366-6.46 4.505-10.414l.006-.176V173.034l-.001-.071a15.291 15.291 0 0 0-6.72-12.443 14.959 14.959 0 0 0-8.521-2.632c-2.987 0-5.869.864-8.338 2.499-4.324 2.841-6.904 7.591-6.904 12.718v147.72l.01.223a15.182 15.182 0 0 0 3.564 9.084zm6.425-9.732V173.105c0-1.813.967-3.429 2.411-4.371a5.005 5.005 0 0 1 2.832-.846 5 5 0 0 1 2.882.891 5.284 5.284 0 0 1 2.36 4.326v147.269a5.481 5.481 0 0 1-1.591 3.703 5.169 5.169 0 0 1-3.652 1.52c-1.616 0-3.028-.725-4.027-1.915a5.147 5.147 0 0 1-1.215-3.079v-.203zm41.435 17.039a5 5 0 0 0 .547.03H328a5 5 0 1 0 0-10h-63.527c-.429-.108-.866-.452-.877-1.095v-167.68c.007-.427.041-.663.064-.774.149-.12.595-.424 1.706-.865 9.673-3.9 20.284-5.963 30.684-5.963 44.213 0 80.513 34.576 84.437 80.428a5.001 5.001 0 0 0 6.979 4.157 43.989 43.989 0 0 1 17.663-3.688c25.293 0 45.871 21.468 45.871 47.856 0 26.26-20.578 47.624-45.871 47.624a5 5 0 1 0 0 10c30.808 0 55.871-25.85 55.872-57.625 0-31.902-25.064-57.856-55.871-57.856-5.266 0-10.434.753-15.434 2.244-3.281-21.875-13.586-41.964-29.421-57.117-17.536-16.781-40.344-26.023-64.223-26.023-11.67 0-23.574 2.314-34.398 6.679-5.483 2.175-7.967 5.493-8.055 10.841v167.841c.09 5.741 4.274 10.361 9.949 10.986z"/><path d="M375 327.469h-23a5 5 0 1 0 0 10h23a5 5 0 1 0 0-10zm70 123.722h-43a5 5 0 1 0 0 10h43a5 5 0 1 0 0-10zm-93 0H52a5 5 0 1 0 0 10h300a5 5 0 1 0 0-10z"/></svg>