<svg xmlns="http://www.w3.org/2000/svg" viewBox="0 0 502 502"><path fill="#50abf1" d="M5 5h492v492H5z"/><path d="M497 502H5a5 5 0 0 1-5-5V5a5 5 0 0 1 5-5h492a5 5 0 0 1 5 5v492a5 5 0 0 1-5 5zM10 492h482V10H10v482z"/><path d="M114 141.851a202.266 202.266 0 0 1-18.042-19.162s-35.518 48.492 21.171 98.354c0 0-17.233-.686-32.097-9.568 0 0-5.461 58.744 58.733 73.768 0 0-12.63 4.781-32.783 1.371 0 0 11.271 47.469 68.306 51.902 0 0-45.102 40.742-109.128 31.185l.022.005c32.745 20.764 71.586 32.783 113.224 32.783 116.967 0 211.789-94.832 211.789-211.788 0-2.92-.058-5.82-.174-8.71 4.232-3.331 30.4-24.305 36.815-37.785 0 0-21.254 8.83-42.05 10.908-.043 0-.09.009-.132.009 0 0 .042-.02.111-.067 1.919-1.282 28.709-19.52 32.335-41.249 0 0-15.029 8.023-36.072 15.04a238.833 238.833 0 0 1-10.892 3.352c-13.564-14.48-32.846-23.516-54.248-23.516-41.054 0-74.321 33.258-74.321 74.279a74.12 74.12 0 0 0 1.924 16.832c-2.38-.096-18.822-.997-41.492-7.164L170 179.197c-8.835-4.079-17.926-8.961-26.997-14.807L114 141.851z" fill="#fff"/><path d="M194.994 371.911a5 5 0 0 1-.512-9.974 178.827 178.827 0 0 0 39.883-8.85 5 5 0 0 1 3.27 9.45 188.813 188.813 0 0 1-42.117 9.346 4.882 4.882 0 0 1-.524.028zm82.011-29.315a5 5 0 0 1-2.756-9.176c42.606-28.072 71.355-72.962 78.876-123.16a5 5 0 0 1 9.89 1.482c-7.941 53.003-38.29 100.397-83.264 130.029a4.977 4.977 0 0 1-2.746.825zM449 52h-43a5 5 0 0 1 0-10h43a5 5 0 0 1 0 10zm-93 0H56a5 5 0 0 1 0-10h300a5 5 0 0 1 0 10z"/><path d="M183.405 407.489c-41.161 0-81.2-11.582-115.8-33.496a5.007 5.007 0 0 1-2.338-5.266 4.99 4.99 0 0 1 5.631-3.971c44.506 6.644 79.766-12.153 95.738-22.948-23.85-4.828-38.445-17.355-46.793-27.78-10.529-13.147-13.602-25.73-13.727-26.259a5.002 5.002 0 0 1 5.698-6.085c3.537.599 6.827.927 9.835 1.066-20.697-10.169-30.922-25.615-35.965-38.16-7.029-17.486-5.693-32.929-5.633-33.578a5.001 5.001 0 0 1 7.543-3.829c4.89 2.922 10.081 4.887 14.735 6.207-20.493-23.165-23.527-45.313-22.023-60.708 1.905-19.495 11.22-32.407 11.616-32.947a4.997 4.997 0 0 1 7.889-.229 198.096 198.096 0 0 0 17.596 18.688 5 5 0 0 1-6.819 7.314 208.413 208.413 0 0 1-13.904-14.273c-6.835 13.44-18.414 48.974 23.744 86.054a5 5 0 0 1 1.34 5.612 5.013 5.013 0 0 1-4.841 3.139c-.636-.025-13.444-.606-26.891-6.414 1.05 15.547 8.705 49.946 54.864 60.749a5 5 0 0 1 .631 9.545c-.49.185-10.695 3.95-27.175 2.646 5.47 12.638 21.309 37.855 61.317 40.965a5 5 0 0 1 2.964 8.696c-1.687 1.523-37.408 33.169-90.795 33.932 28.325 14.005 59.588 21.331 91.561 21.331 114.024 0 206.79-92.765 206.79-206.788 0-2.837-.057-5.7-.17-8.508a5 5 0 0 1 1.904-4.13c7.181-5.652 18.228-15.098 26.292-23.823-7.894 2.376-17.916 4.849-27.937 5.85l-.147.013a5.41 5.41 0 0 1-.482.022c-2.389 0-4.603-1.618-5.064-3.961-.448-2.271.572-4.473 2.646-5.433 2.538-1.737 18.442-12.985 26.128-27.18a281.187 281.187 0 0 1-25.754 10.04 240.146 240.146 0 0 1-11.124 3.423 5.002 5.002 0 0 1-4.999-1.396c-13.25-14.145-31.22-21.934-50.599-21.934-38.224 0-69.321 31.078-69.321 69.279 0 5.308.604 10.589 1.794 15.697.354 1.521-.022 3.119-1.017 4.322s-2.509 1.865-4.054 1.809c-1.88-.076-19.046-.927-42.603-7.335a5 5 0 0 1-3.512-6.137 4.997 4.997 0 0 1 6.137-3.512c14.952 4.067 27.089 5.786 34.065 6.501a79.666 79.666 0 0 1-.811-11.345c0-43.714 35.583-79.279 79.321-79.279 20.82 0 40.96 8.304 55.739 22.883a244.074 244.074 0 0 0 7.822-2.463c20.348-6.786 35.149-14.628 35.296-14.707a5.002 5.002 0 0 1 7.285 5.234c-2.118 12.694-11.054 24.042-19.337 32.139 12.417-3.146 22.084-7.122 22.225-7.18a5 5 0 1 1 6.432 6.766c-6.213 13.056-28.29 31.575-36.246 37.98.06 2.116.091 4.248.091 6.366.001 119.536-97.25 216.786-216.788 216.786zm-13.407-223.29a4.986 4.986 0 0 1-2.093-.461c-9.613-4.437-18.902-9.532-27.61-15.143a5.002 5.002 0 0 1 5.417-8.407c8.316 5.359 17.193 10.228 26.384 14.47a5 5 0 0 1-2.098 9.541z"/></svg>