<svg xmlns="http://www.w3.org/2000/svg" viewBox="0 0 502 502"><path d="M497 0H5a5 5 0 0 0-5 5v492a5 5 0 0 0 5 5h492a5 5 0 0 0 5-5V5a5 5 0 0 0-5-5zm-5 492H10V10h482v482z"/><path d="M277.005 342.596c.944 0 1.899-.267 2.746-.825 44.974-29.632 75.323-77.026 83.264-130.029a5 5 0 0 0-9.89-1.482c-7.521 50.198-36.27 95.088-78.876 123.16a5 5 0 0 0 2.756 9.176zm-82.011 29.315c.173 0 .348-.009.524-.028a188.813 188.813 0 0 0 42.117-9.346 5 5 0 1 0-3.27-9.45 178.827 178.827 0 0 1-39.883 8.85 5 5 0 0 0 .512 9.974zM406 52h43a5 5 0 0 0 0-10h-43a5 5 0 0 0 0 10zM56 52h300a5 5 0 0 0 0-10H56a5 5 0 0 0 0 10zm111.905 131.738a5 5 0 0 0 6.635-2.445 5 5 0 0 0-2.444-6.635c-9.191-4.242-18.068-9.111-26.384-14.47a5 5 0 0 0-5.417 8.407c8.708 5.611 17.997 10.706 27.61 15.143z"/><path d="M241.565 182.964c0 3.805.272 7.601.811 11.345-6.976-.715-19.113-2.434-34.065-6.501a4.997 4.997 0 0 0-6.137 3.512 5 5 0 0 0 3.512 6.137c23.557 6.408 40.723 7.259 42.603 7.335 1.545.056 3.059-.606 4.054-1.809s1.371-2.801 1.017-4.322a69.274 69.274 0 0 1-1.794-15.697c0-38.201 31.097-69.279 69.321-69.279 19.379 0 37.349 7.789 50.599 21.934a5.002 5.002 0 0 0 4.999 1.396c3.569-1 7.206-2.119 11.124-3.423a281.187 281.187 0 0 0 25.754-10.04c-7.686 14.195-23.59 25.443-26.128 27.18-2.074.96-3.094 3.162-2.646 5.433.461 2.343 2.675 3.961 5.064 3.961.153 0 .315-.007.482-.022l.147-.013c10.021-1.001 20.043-3.474 27.937-5.85-8.064 8.725-19.111 18.171-26.292 23.823a5 5 0 0 0-1.904 4.13c.113 2.808.17 5.671.17 8.508 0 114.023-92.766 206.788-206.79 206.788-31.973 0-63.236-7.326-91.561-21.331 53.387-.763 89.108-32.409 90.795-33.932a5 5 0 0 0-2.964-8.696c-40.008-3.11-55.847-28.327-61.317-40.965 16.48 1.304 26.685-2.461 27.175-2.646a5.001 5.001 0 0 0-.631-9.545c-46.159-10.803-53.814-45.202-54.864-60.749 13.447 5.808 26.255 6.389 26.891 6.414a5.013 5.013 0 0 0 4.841-3.139 5 5 0 0 0-1.34-5.612c-42.158-37.08-30.579-72.614-23.744-86.054a208.413 208.413 0 0 0 13.904 14.273 5 5 0 0 0 6.819-7.314 198.096 198.096 0 0 1-17.596-18.688 5 5 0 0 0-7.889.229c-.396.54-9.711 13.452-11.616 32.947-1.504 15.395 1.53 37.543 22.023 60.708-4.654-1.32-9.845-3.285-14.735-6.207a5 5 0 0 0-7.543 3.829c-.06.649-1.396 16.092 5.633 33.578 5.043 12.545 15.268 27.991 35.965 38.16a81.408 81.408 0 0 1-9.835-1.066 4.998 4.998 0 0 0-5.698 6.085c.125.529 3.198 13.112 13.727 26.259 8.348 10.425 22.943 22.952 46.793 27.78-15.972 10.795-51.232 29.592-95.738 22.948a4.99 4.99 0 0 0-5.631 3.971 5.007 5.007 0 0 0 2.338 5.266c34.6 21.914 74.639 33.496 115.8 33.496 119.538 0 216.789-97.25 216.788-216.786 0-2.118-.031-4.25-.091-6.366 7.956-6.405 30.033-24.924 36.246-37.98a5 5 0 0 0-6.432-6.766c-.141.058-9.808 4.034-22.225 7.18 8.283-8.097 17.219-19.445 19.337-32.139a5.002 5.002 0 0 0-7.285-5.234c-.147.079-14.948 7.921-35.296 14.707-2.726.906-5.308 1.72-7.822 2.463-14.779-14.579-34.919-22.883-55.739-22.883-43.738 0-79.321 35.565-79.321 79.279z"/></svg>