<?xml version="1.0" encoding="iso-8859-1"?>
<!-- Generator: Adobe Illustrator 19.0.0, SVG Export Plug-In . SVG Version: 6.00 Build 0)  -->
<svg version="1.1" id="Layer_1" xmlns="http://www.w3.org/2000/svg" xmlns:xlink="http://www.w3.org/1999/xlink" x="0px" y="0px"
	 viewBox="0 0 502 502" style="enable-background:new 0 0 502 502;" xml:space="preserve">
<g>
	<g>
		<g>
			<path d="M497,0H5C2.239,0,0,2.238,0,5v492c0,2.762,2.239,5,5,5h492c2.761,0,5-2.238,5-5V5C502,2.238,499.761,0,497,0z M492,492
				H10V10h482V492z"/>
			<path d="M57.922,326.105c5.924,0,10.938-4.497,11.664-10.459l0.073-0.602v-0.606V240.95v-0.622l-0.077-0.617
				c-0.743-5.946-5.756-10.428-11.66-10.428c-5.835,0-10.834,4.441-11.628,10.331l-0.09,0.665v0.671v73.488v0.637l0.081,0.632
				C47.043,321.635,52.046,326.105,57.922,326.105z M56.204,240.95c0.127-0.942,0.872-1.667,1.718-1.667
				c0.891,0,1.616,0.7,1.737,1.667v73.488c-0.121,0.993-0.846,1.667-1.737,1.667c-0.846,0-1.591-0.674-1.718-1.667V240.95z"/>
			<path d="M90.578,334.329c6.471,0,11.797-4.937,12.389-11.484l0.041-0.45v-0.452V232.85v-0.441l-0.039-0.44
				c-0.58-6.558-5.907-11.504-12.391-11.504c-6.503,0-11.956,5.135-12.412,11.69l-0.024,0.347v0.348v89.094v0.356l0.025,0.355
				C78.634,329.201,84.086,334.329,90.578,334.329z M88.141,232.85c0.096-1.367,1.146-2.385,2.437-2.385
				c1.266,0,2.309,1.018,2.43,2.386v89.094c-0.121,1.336-1.164,2.386-2.43,2.386c-1.292,0-2.341-1.05-2.437-2.386V232.85z"/>
			<path d="M123.73,335.4c6.943,0,12.703-5.503,13.113-12.529l0.017-0.291v-0.266v-0.025v-112.5v-0.221l-0.01-0.221
				c-0.313-7.091-6.076-12.644-13.119-12.644c-6.947,0-12.71,5.503-13.12,12.529l-0.017,0.291v0.292v112.5v0.296l0.017,0.295
				C111.026,329.912,116.789,335.4,123.73,335.4z M120.594,209.814c0.102-1.744,1.47-3.111,3.137-3.111
				c1.661,0,3.054,1.368,3.13,3.086v112.499v0.001c-0.102,1.743-1.469,3.111-3.13,3.111c-1.667,0-3.035-1.368-3.137-3.086V209.814z"
				/>
			<path d="M157.424,335.399c7.407,0,13.489-5.855,13.844-13.329l0.011-0.237v-0.212v-0.026V187.171v-0.181l-0.007-0.181
				c-0.272-7.538-6.355-13.442-13.848-13.442c-7.476,0-13.545,5.905-13.817,13.444l-0.007,0.18v0.18V321.62v0.18l0.007,0.18
				C143.878,329.505,149.947,335.399,157.424,335.399z M153.601,187.171c0.076-2.112,1.762-3.804,3.823-3.804
				c2.093,0,3.779,1.692,3.855,3.804v134.424c-0.102,2.138-1.762,3.805-3.855,3.805c-2.061,0-3.747-1.667-3.823-3.779V187.171z"/>
			<path d="M177.122,321.049l0.002,0.101c0.161,7.882,6.675,14.294,14.521,14.294c7.913,0,14.302-6.246,14.544-14.219l0.005-0.152
				v-0.127v-0.025V186.548v-0.15l-0.004-0.149c-0.239-7.991-6.628-14.25-14.545-14.25s-14.306,6.26-14.544,14.251l-0.005,0.15v0.15
				l0.026,134.398V321.049z M191.645,181.999c2.513,0,4.473,1.991,4.549,4.549V320.92c-0.077,2.513-2.036,4.523-4.549,4.523
				c-2.456,0-4.473-2.01-4.523-4.498l-0.026-134.398C187.173,183.99,189.19,181.999,191.645,181.999z"/>
			<path d="M215.688,330.132c2.926,3.473,7.177,5.464,11.668,5.464c3.998,0,7.908-1.624,10.731-4.457
				c2.767-2.764,4.366-6.46,4.505-10.414l0.006-0.176v-0.176V173.105v-0.071l-0.001-0.071c-0.07-4.994-2.58-9.638-6.72-12.443
				c-2.503-1.722-5.448-2.632-8.521-2.632c-2.987,0-5.869,0.864-8.338,2.499c-4.324,2.841-6.904,7.591-6.904,12.718v147.294v0.203
				v0.223l0.01,0.223C212.272,324.365,213.537,327.59,215.688,330.132z M222.113,320.4V173.105c0-1.813,0.967-3.429,2.411-4.371
				c0.822-0.547,1.763-0.846,2.832-0.846c1.069,0,2.062,0.318,2.882,0.891c1.419,0.948,2.335,2.539,2.36,4.326v147.269
				c-0.051,1.444-0.642,2.761-1.591,3.703c-0.942,0.948-2.258,1.52-3.652,1.52c-1.616,0-3.028-0.725-4.027-1.915
				c-0.719-0.846-1.164-1.94-1.215-3.079C222.113,320.527,222.113,320.476,222.113,320.4z"/>
			<path d="M263.548,337.439c0.182,0.02,0.364,0.03,0.547,0.03H328c2.761,0,5-2.238,5-5c0-2.762-2.239-5-5-5h-63.527
				c-0.429-0.108-0.866-0.452-0.877-1.095v-167.68c0.007-0.427,0.041-0.663,0.064-0.774c0.149-0.12,0.595-0.424,1.706-0.865
				c9.673-3.9,20.284-5.963,30.684-5.963c44.213,0,80.513,34.576,84.437,80.428c0.138,1.604,1.039,3.045,2.423,3.869
				c1.385,0.822,3.079,0.931,4.556,0.288c5.62-2.447,11.562-3.688,17.663-3.688c25.293,0,45.871,21.468,45.871,47.856
				c0,26.26-20.578,47.624-45.871,47.624c-2.761,0-5,2.238-5,5c0,2.762,2.239,5,5,5c30.808,0,55.871-25.85,55.872-57.625
				c0-31.902-25.064-57.856-55.871-57.856c-5.266,0-10.434,0.753-15.434,2.244c-3.281-21.875-13.586-41.964-29.421-57.117
				c-17.536-16.781-40.344-26.023-64.223-26.023c-11.67,0-23.574,2.314-34.398,6.679c-5.483,2.175-7.967,5.493-8.055,10.841v167.841
				C253.689,332.194,257.873,336.814,263.548,337.439z"/>
			<path d="M375,327.469h-23c-2.761,0-5,2.238-5,5c0,2.762,2.239,5,5,5h23c2.762,0,5-2.238,5-5
				C380,329.707,377.761,327.469,375,327.469z"/>
			<path d="M445,451.191h-43c-2.761,0-5,2.238-5,5c0,2.762,2.239,5,5,5h43c2.761,0,5-2.238,5-5
				C450,453.429,447.761,451.191,445,451.191z"/>
			<path d="M352,451.191H52c-2.761,0-5,2.238-5,5c0,2.762,2.239,5,5,5h300c2.761,0,5-2.238,5-5
				C357,453.429,354.761,451.191,352,451.191z"/>
		</g>
	</g>
</g>
<g>
</g>
<g>
</g>
<g>
</g>
<g>
</g>
<g>
</g>
<g>
</g>
<g>
</g>
<g>
</g>
<g>
</g>
<g>
</g>
<g>
</g>
<g>
</g>
<g>
</g>
<g>
</g>
<g>
</g>
</svg>
