<?xml version="1.0" encoding="iso-8859-1"?>
<!-- Generator: Adobe Illustrator 19.0.0, SVG Export Plug-In . SVG Version: 6.00 Build 0)  -->
<svg version="1.1" id="Layer_1" xmlns="http://www.w3.org/2000/svg" xmlns:xlink="http://www.w3.org/1999/xlink" x="0px" y="0px"
	 viewBox="0 0 502 502" style="enable-background:new 0 0 502 502;" xml:space="preserve">
<g>
	<g>
		<rect x="5" y="5" style="fill:#FF6A22;" width="492" height="492"/>
		<path d="M497,502H5c-2.761,0-5-2.238-5-5V5c0-2.762,2.239-5,5-5h492c2.761,0,5,2.238,5,5v492C502,499.762,499.761,502,497,502z
			 M10,492h482V10H10V492z"/>
	</g>
	<g>
		<g>
			<path style="fill:#FFFFFF;" d="M57.922,321.104c-3.367,0-6.237-2.594-6.677-6.032l-0.041-0.316v-74.143l0.045-0.332
				c0.461-3.42,3.33-5.999,6.673-5.999c3.387,0,6.267,2.599,6.698,6.046l0.039,0.31v74.104l-0.037,0.302
				C64.193,318.556,61.375,321.104,57.922,321.104z"/>
		</g>
		<g>
			<path d="M57.922,239.283c0.891,0,1.616,0.7,1.737,1.667v73.488c-0.121,0.993-0.846,1.667-1.737,1.667
				c-0.846,0-1.591-0.674-1.718-1.667V240.95C56.331,240.008,57.076,239.283,57.922,239.283 M57.922,229.283
				c-5.835,0-10.834,4.441-11.628,10.331l-0.09,0.665v0.671v73.488v0.637l0.081,0.632c0.758,5.928,5.761,10.398,11.637,10.398
				c5.924,0,10.938-4.497,11.664-10.459l0.073-0.602v-0.606V240.95v-0.622l-0.077-0.617
				C68.839,233.765,63.826,229.283,57.922,229.283L57.922,229.283z"/>
		</g>
	</g>
	<g>
		<g>
			<path style="fill:#FFFFFF;" d="M90.578,329.33c-3.882,0-7.143-3.088-7.424-7.03l-0.013-0.178v-89.445l0.012-0.173
				c0.279-4.013,3.471-7.039,7.424-7.039c3.875,0,7.06,2.985,7.411,6.945l0.02,0.22v89.541l-0.021,0.225
				C97.629,326.349,94.444,329.33,90.578,329.33z"/>
		</g>
		<g>
			<path d="M90.578,230.465c1.266,0,2.309,1.018,2.43,2.386v89.094c-0.121,1.336-1.164,2.386-2.43,2.386
				c-1.292,0-2.341-1.05-2.437-2.386V232.85C88.237,231.483,89.287,230.465,90.578,230.465 M90.578,220.465
				c-6.503,0-11.956,5.135-12.412,11.69l-0.024,0.347v0.348v89.094v0.356l0.025,0.355c0.467,6.546,5.919,11.674,12.411,11.674
				c6.471,0,11.797-4.937,12.389-11.484l0.041-0.45v-0.452V232.85v-0.441l-0.039-0.44
				C102.389,225.411,97.062,220.465,90.578,220.465L90.578,220.465z"/>
		</g>
	</g>
	<g>
		<g>
			<path style="fill:#FFFFFF;" d="M123.731,330.399c-4.299,0-7.87-3.422-8.128-7.791l-0.009-0.147V209.668l0.008-0.146
				c0.256-4.385,3.826-7.82,8.128-7.82c4.36,0,7.929,3.454,8.125,7.864l0.005,0.222v112.646l-0.009,0.146
				C131.596,326.965,128.028,330.399,123.731,330.399z"/>
		</g>
		<g>
			<path d="M123.731,206.703c1.661,0,3.054,1.368,3.13,3.086v112.5c-0.102,1.743-1.469,3.111-3.13,3.111
				c-1.667,0-3.035-1.368-3.137-3.086v-112.5C120.696,208.07,122.064,206.703,123.731,206.703 M126.861,322.288v0.025V322.288
				 M123.731,196.703c-6.947,0-12.71,5.503-13.12,12.529l-0.017,0.291v0.292v112.5v0.296l0.017,0.295
				c0.415,7.006,6.178,12.494,13.119,12.494c6.943,0,12.703-5.503,13.113-12.529l0.017-0.291v-0.266v-0.025v-112.5v-0.221
				l-0.01-0.221C136.537,202.256,130.774,196.703,123.731,196.703L123.731,196.703z"/>
		</g>
	</g>
	<g>
		<g>
			<path style="fill:#FFFFFF;" d="M157.424,330.399c-4.772,0-8.646-3.777-8.82-8.599l-0.003-0.181V187.081l0.003-0.091
				c0.174-4.836,4.048-8.624,8.82-8.624c4.789,0,8.677,3.788,8.853,8.623l0.003,0.182v134.543l-0.006,0.119
				C166.045,326.637,162.157,330.399,157.424,330.399z"/>
		</g>
		<g>
			<path d="M157.424,183.367c2.093,0,3.779,1.692,3.855,3.804v134.424c-0.102,2.138-1.762,3.805-3.855,3.805
				c-2.061,0-3.747-1.667-3.823-3.779v-134.45C153.677,185.059,155.363,183.367,157.424,183.367 M161.28,321.595v0.026V321.595
				 M157.424,173.367c-7.476,0-13.545,5.905-13.817,13.444l-0.007,0.18v0.18V321.62v0.18l0.007,0.18
				c0.271,7.525,6.34,13.419,13.817,13.419c7.407,0,13.489-5.855,13.844-13.329l0.011-0.237v-0.212v-0.026V187.171v-0.181
				l-0.007-0.181C171,179.271,164.917,173.367,157.424,173.367L157.424,173.367z"/>
		</g>
	</g>
	<g>
		<g>
			<path style="fill:#FFFFFF;" d="M191.646,330.443c-5.145,0-9.417-4.215-9.522-9.396L182.1,186.399c0.157-5.271,4.35-9.4,9.546-9.4
				s9.39,4.129,9.546,9.4v134.672C201.033,326.327,196.839,330.443,191.646,330.443z"/>
		</g>
		<g>
			<path d="M191.645,181.999c2.513,0,4.473,1.991,4.549,4.549V320.92c-0.077,2.513-2.036,4.523-4.549,4.523
				c-2.456,0-4.473-2.01-4.523-4.498l-0.026-134.398C187.173,183.99,189.19,181.999,191.645,181.999 M196.194,320.92v0.025V320.92
				 M191.645,171.999c-7.917,0-14.306,6.26-14.544,14.251l-0.005,0.15v0.15l0.026,134.398v0.101l0.002,0.101
				c0.161,7.882,6.675,14.294,14.521,14.294c7.913,0,14.302-6.246,14.544-14.219l0.005-0.152v-0.127v-0.025V186.548v-0.15
				l-0.004-0.149C205.951,178.258,199.562,171.999,191.645,171.999L191.645,171.999z"/>
		</g>
	</g>
	<g>
		<g>
			<path style="fill:#FFFFFF;" d="M227.356,330.597c-3.018,0-5.881-1.349-7.855-3.699c-1.43-1.685-2.282-3.847-2.382-6.07
				l-0.005-0.429V173.104c0-3.448,1.75-6.648,4.681-8.559c1.608-1.074,3.547-1.658,5.561-1.658c2.078,0,4.063,0.618,5.742,1.789
				c2.74,1.829,4.453,4.975,4.5,8.356l-0.002,147.516c-0.095,2.694-1.184,5.207-3.065,7.075
				C232.662,329.505,230.039,330.597,227.356,330.597z"/>
		</g>
		<g>
			<path d="M227.356,167.888c1.069,0,2.062,0.318,2.882,0.891c1.419,0.948,2.335,2.539,2.36,4.326v147.269
				c-0.051,1.444-0.642,2.761-1.591,3.703c-0.942,0.948-2.258,1.52-3.652,1.52c-1.616,0-3.028-0.725-4.027-1.915
				c-0.719-0.846-1.164-1.94-1.215-3.079c0-0.076,0-0.127,0-0.203V173.105c0-1.813,0.967-3.429,2.411-4.371
				C225.346,168.187,226.287,167.888,227.356,167.888 M227.356,157.888c-2.987,0-5.869,0.864-8.338,2.499
				c-4.324,2.841-6.904,7.591-6.904,12.718v147.294v0.203v0.223l0.01,0.223c0.148,3.317,1.413,6.542,3.564,9.084
				c2.926,3.473,7.177,5.464,11.668,5.464c3.998,0,7.908-1.624,10.731-4.457c2.767-2.764,4.366-6.46,4.505-10.414l0.006-0.176
				v-0.176V173.105v-0.071l-0.001-0.071c-0.07-4.994-2.58-9.638-6.72-12.443C233.374,158.798,230.429,157.888,227.356,157.888
				L227.356,157.888z"/>
		</g>
	</g>
	<g>
		<path style="fill:#FFFFFF;" d="M264.095,332.469c-3.06-0.337-5.446-2.836-5.497-6.095V158.611
			c0.051-3.067,1.069-4.673,4.899-6.194c9.867-3.98,21.052-6.326,32.555-6.326c46.895,0,85.341,37.362,89.418,85.002
			c6.038-2.631,12.699-4.105,19.659-4.105c28.082,0,50.871,23.652,50.871,52.856s-22.789,52.625-50.871,52.625l0,0H264.095z"/>
		<path d="M405.129,337.469c-2.761,0-5-2.238-5-5s2.239-5,5-5c25.293,0,45.871-21.364,45.871-47.624
			c0-26.388-20.578-47.856-45.871-47.856c-6.101,0-12.043,1.241-17.663,3.688c-1.477,0.643-3.171,0.534-4.556-0.288
			c-1.384-0.824-2.285-2.265-2.423-3.869c-3.924-45.852-40.224-80.428-84.437-80.428c-10.4,0-21.011,2.063-30.684,5.963
			c-1.111,0.441-1.557,0.745-1.706,0.865c-0.023,0.111-0.057,0.347-0.064,0.774v167.68c0.011,0.643,0.448,0.987,0.877,1.095H328
			c2.761,0,5,2.238,5,5s-2.239,5-5,5h-63.905c-0.183,0-0.365-0.01-0.547-0.03c-5.675-0.625-9.859-5.245-9.949-10.986V158.612
			c0.088-5.348,2.572-8.666,8.055-10.841c10.824-4.365,22.728-6.679,34.398-6.679c23.879,0,46.687,9.242,64.223,26.023
			c15.835,15.153,26.14,35.242,29.421,57.117c5-1.491,10.168-2.244,15.434-2.244c30.807,0,55.871,25.954,55.871,57.856
			C461,311.619,435.937,337.469,405.129,337.469z"/>
	</g>
	<g>
		<path d="M375,337.469h-23c-2.761,0-5-2.238-5-5s2.239-5,5-5h23c2.761,0,5,2.238,5,5S377.762,337.469,375,337.469z"/>
	</g>
	<g>
		<path d="M445,461.191h-43c-2.761,0-5-2.238-5-5s2.239-5,5-5h43c2.761,0,5,2.238,5,5S447.761,461.191,445,461.191z"/>
	</g>
	<g>
		<path d="M352,461.191H52c-2.761,0-5-2.238-5-5s2.239-5,5-5h300c2.761,0,5,2.238,5,5S354.761,461.191,352,461.191z"/>
	</g>
</g>
<g>
</g>
<g>
</g>
<g>
</g>
<g>
</g>
<g>
</g>
<g>
</g>
<g>
</g>
<g>
</g>
<g>
</g>
<g>
</g>
<g>
</g>
<g>
</g>
<g>
</g>
<g>
</g>
<g>
</g>
</svg>
