<?xml version="1.0" encoding="utf-8"?>
<!-- Generator: Adobe Illustrator 19.0.0, SVG Export Plug-In . SVG Version: 6.00 Build 0)  -->
<svg version="1.1" baseProfile="tiny" id="Layer_1" xmlns="http://www.w3.org/2000/svg" xmlns:xlink="http://www.w3.org/1999/xlink"
	 x="0px" y="0px" viewBox="-848 469.9 221.5 143.1" xml:space="preserve">
<g>
	<path fill="#FFFFFF" d="M-843.3,473.3c34.2,0,68.1,0,102.4,0c0,11.3,0,22.5,0,34.3c-21.2,0-42.4,0-64,0c0,6.9,0,13.3,0,20
		c21.3,0,42.4,0,64,0c0,11.6,0,22.8,0,34.5c-21.2,0-42.4,0-64,0c0,16,0,31.5,0,47.4c-13,0-25.5,0-38.4,0
		C-843.3,564.4-843.3,519.3-843.3,473.3z"/>
	<path fill="#FFFFFF" d="M-669.7,609.5c0-15.8,0-31.3,0-47.2c-21.5,0-42.6,0-64.1,0c0-11.5,0-22.7,0-34.3c21.2,0,42.4,0,64,0
		c0-6.8,0-13.2,0-20.1c-21.3,0-42.6,0-64.1,0c0-11.7,0-22.8,0-34.4c34.2,0,68.3,0,102.6,0c0,45.4,0,90.5,0,136
		C-643.9,609.5-656.7,609.5-669.7,609.5z"/>
</g>
</svg>
