<?xml version="1.0" standalone="no"?>
<!DOCTYPE svg PUBLIC "-//W3C//DTD SVG 20010904//EN"
 "http://www.w3.org/TR/2001/REC-SVG-20010904/DTD/svg10.dtd">
<svg version="1.0" xmlns="http://www.w3.org/2000/svg"
 width="260.000000pt" height="260.000000pt" viewBox="0 0 260.000000 260.000000"
 preserveAspectRatio="xMidYMid meet">
<metadata>
Created by potrace 1.11, written by Peter Selinger 2001-2013
</metadata>
<g transform="translate(0.000000,260.000000) scale(0.100000,-0.100000)"
fill="#000000" stroke="none">
<path d="M1160 2120 c0 -126 -3 -230 -7 -230 -5 0 -169 52 -285 90 l-28 9 0
-148 0 -149 148 -47 c81 -26 153 -52 160 -57 9 -8 12 -70 12 -249 l0 -239
-265 0 -265 0 0 -145 0 -145 265 0 265 0 0 -280 0 -280 145 0 145 0 0 280 0
280 260 0 260 0 0 145 0 145 -260 0 -260 0 0 196 c0 153 3 195 13 192 68 -26
299 -99 301 -97 1 2 0 72 -3 154 l-6 150 -150 50 -150 50 -3 278 -2 277 -145
0 -145 0 0 -230z"/>
</g>
</svg>
