<svg version="1.1" id="Layer_1" xmlns="http://www.w3.org/2000/svg" x="0" y="0" viewBox="0 0 600 160" xml:space="preserve"><style>.st0{fill:#fff}</style><g id="XMLID_49_"><path id="XMLID_16_" class="st0" d="M0 43.9c.6-2.2 1.3-4.3 1.7-6.5 4.2-20.2 18-30.1 36.9-34C45.7 1.9 53.1 1 60.4.9 88.1.6 115.9.8 143.6.8c1.2 0 2.4.2 4.3.4v151.9c0 2.3.3 4.6.4 6.9h-44.1v-47.5c-4.7 0-9.1.6-13.2-.1-12.1-2.3-18.7 2.9-23.3 13.9-4.8 11.6-11.4 22.5-17.2 33.7H2.1c9.4-17.7 18.8-35.5 28.4-53.5-15.8-6.5-25.4-17.7-28.9-34-.4-2-1.1-4-1.6-6V43.9zm104.1-4.7c-14.9 0-29.5-.6-44.1.2-10.9.6-14.6 5.4-14.7 16.4 0 2.3.1 4.7.5 6.9 1.2 7 4.2 10.9 11.3 11.4 12.9.9 25.7.8 38.6 1.1 2.8.1 5.6 0 8.5 0-.1-12.4-.1-24.2-.1-36z"/><path id="XMLID_6_" class="st0" d="M207.5 160c.1-2.3.4-4.6.4-6.9V1.2h119.6v39.5h-74.7v23.7h74.6v39.8h-74.9v55.9c-14.9-.1-29.9-.1-45-.1z"/><path id="XMLID_5_" class="st0" d="M410.8 160v-55.5H336V64.7h74.6V41H336V1h119.6v152.1c0 2.3.3 4.6.4 6.9h-45.2z"/><path id="XMLID_4_" class="st0" d="M554.8 160V44.8h-19.9V.5c.6-.2 1.3-.5 1.9-.5 19.7 0 39.4-.1 59.1 0 1.4 0 2.7.5 4.1.8v159.1c-15.1.1-30.1.1-45.2.1z"/><path id="XMLID_3_" class="st0" d="M463.4 160c0-51.9-.1-103.8 0-155.7 0-1.4 2-4.1 3.1-4.1 19.8-.3 39.7-.2 59.9-.2v44.7h-17.8c-.2 2-.4 3.4-.4 4.7v106.8c0 1.2.3 2.5.4 3.7-15.1.1-30.1.1-45.2.1z"/><path id="XMLID_2_" class="st0" d="M155.9 160c0-52.1-.1-104.2-.1-156.3 0-.7.2-1.4.3-2.5h44.5v151.9c0 2.3.3 4.6.4 6.9h-45.1z"/><path id="XMLID_1_" class="st0" d="M515.6 103.6V64.9h31.3v38.7h-31.3z"/></g></svg>