<svg xmlns="http://www.w3.org/2000/svg" viewBox="0 0 376 592"><path d="M148 0h82c0 50.7.1 101.3 0 152 0 3.6 1 5.1 4.5 6.2 26.2 8.2 52.3 16.6 78.5 24.8 3.2 1 4.4 2.4 4.4 5.9.4 25.8 1 51.6 1.5 77.5 0 1.1-.1 2.3-.2 4-29.6-9.7-58.8-19.3-88.4-29v111.7h145.6v82H230v6.5c0 50.2-.1 100.3-.1 150.5h-82V435.2h-6.5c-47.1-.1-94.2-.2-141.4-.2v-82h147.6c.1-1.7.3-2.8.3-4 0-43.7 0-87.3.1-131 0-3.5-1.5-4.4-4.3-5.3-27-8.8-54-17.9-81.1-26.6-3.7-1.2-4.7-2.9-4.7-6.6.2-12.8.1-25.7.1-38.5v-39c30 9.5 59.6 18.9 90 28.6V0z" fill="#fff"/></svg>