<?xml version="1.0" encoding="utf-8"?>
<!-- Generator: Adobe Illustrator 19.0.0, SVG Export Plug-In . SVG Version: 6.00 Build 0)  -->
<svg version="1.1" id="Layer_1" xmlns="http://www.w3.org/2000/svg" xmlns:xlink="http://www.w3.org/1999/xlink" x="0px" y="0px"
	 viewBox="0 0 600 160" style="enable-background:new 0 0 600 160;" xml:space="preserve">
<style type="text/css">
	.st0{fill:#FFFFFF;}
</style>
<g id="XMLID_49_">
	<path id="XMLID_16_" class="st0" d="M0,43.9c0.6-2.2,1.3-4.3,1.7-6.5c4.2-20.2,18-30.1,36.9-34c7.1-1.5,14.5-2.4,21.8-2.5
		c27.7-0.3,55.5-0.1,83.2-0.1c1.2,0,2.4,0.2,4.3,0.4c0,2.4,0,4.7,0,7c0,48.3,0,96.6,0,144.9c0,2.3,0.3,4.6,0.4,6.9
		c-14.7,0-29.4,0-44.1,0c0-15.7,0-31.3,0-47.5c-4.7,0-9.1,0.6-13.2-0.1c-12.1-2.3-18.7,2.9-23.3,13.9c-4.8,11.6-11.4,22.5-17.2,33.7
		c-16.1,0-32.3,0-48.4,0c9.4-17.7,18.8-35.5,28.4-53.5C14.7,100,5.1,88.8,1.6,72.5c-0.4-2-1.1-4-1.6-6C0,58.9,0,51.4,0,43.9z
		 M104.1,39.2c-14.9,0-29.5-0.6-44.1,0.2c-10.9,0.6-14.6,5.4-14.7,16.4c0,2.3,0.1,4.7,0.5,6.9C47,69.7,50,73.6,57.1,74.1
		C70,75,82.8,74.9,95.7,75.2c2.8,0.1,5.6,0,8.5,0C104.1,62.8,104.1,51,104.1,39.2z"/>
	<path id="XMLID_6_" class="st0" d="M207.5,160c0.1-2.3,0.4-4.6,0.4-6.9c0-48.4,0-96.7,0-145.1c0-2.1,0-4.2,0-6.8
		c40.1,0,79.7,0,119.6,0c0,13,0,25.9,0,39.5c-24.8,0-49.6,0-74.7,0c0,8.2,0,15.6,0,23.7c24.8,0,49.5,0,74.6,0c0,13.4,0,26.2,0,39.8
		c-24.8,0-49.6,0-74.9,0c0,19.1,0,37.5,0,55.9C237.6,160,222.6,160,207.5,160z"/>
	<path id="XMLID_5_" class="st0" d="M410.8,160c0-18.3,0-36.5,0-55.5c-24.9,0-49.7,0-74.8,0c0-13.6,0-26.4,0-39.8
		c24.7,0,49.5,0,74.6,0c0-8.1,0-15.5,0-23.7c-24.7,0-49.5,0-74.6,0c0-13.7,0-26.7,0-40c39.7,0,79.2,0,119.6,0c0,2.4,0,4.7,0,7
		c0,48.4,0,96.7,0,145.1c0,2.3,0.3,4.6,0.4,6.9C440.9,160,425.8,160,410.8,160z"/>
	<path id="XMLID_4_" class="st0" d="M554.8,160c0-38.2,0-76.5,0-115.2c-7.1,0-13.3,0-19.9,0c0-15,0-29.5,0-44.3
		c0.6-0.2,1.3-0.5,1.9-0.5c19.7,0,39.4-0.1,59.1,0c1.4,0,2.7,0.5,4.1,0.8c0,53,0,106.1,0,159.1C584.9,160,569.9,160,554.8,160z"/>
	<path id="XMLID_3_" class="st0" d="M463.4,160c0-51.9-0.1-103.8,0-155.7c0-1.4,2-4.1,3.1-4.1C486.3-0.1,506.2,0,526.4,0
		c0,15,0,29.5,0,44.7c-5.9,0-11.7,0-17.8,0c-0.2,2-0.4,3.4-0.4,4.7c0,35.6,0,71.2,0,106.8c0,1.2,0.3,2.5,0.4,3.7
		C493.5,160,478.5,160,463.4,160z"/>
	<path id="XMLID_2_" class="st0" d="M155.9,160c0-52.1-0.1-104.2-0.1-156.3c0-0.7,0.2-1.4,0.3-2.5c14.6,0,29.2,0,44.5,0
		c0,2.3,0,4.6,0,6.9c0,48.3,0,96.7,0,145c0,2.3,0.3,4.6,0.4,6.9C186,160,171,160,155.9,160z"/>
	<path id="XMLID_1_" class="st0" d="M515.6,103.6c0-13,0-25.6,0-38.7c10.4,0,20.6,0,31.3,0c0,12.7,0,25.5,0,38.7
		C536.7,103.6,526.5,103.6,515.6,103.6z"/>
</g>
</svg>
