<?xml version="1.0" encoding="utf-8"?>
<!-- Generator: Adobe Illustrator 19.0.0, SVG Export Plug-In . SVG Version: 6.00 Build 0)  -->
<svg version="1.1" id="Layer_1" xmlns="http://www.w3.org/2000/svg" xmlns:xlink="http://www.w3.org/1999/xlink" x="0px" y="0px"
	 viewBox="0 0 376 592" style="enable-background:new 0 0 376 592;" xml:space="preserve">
<style type="text/css">
	.st0{fill:#FFFFFF;}
</style>
<path class="st0" d="M148,0c27.3,0,54.7,0,82,0c0,50.7,0.1,101.3,0,152c0,3.6,1,5.1,4.5,6.2c26.2,8.2,52.3,16.6,78.5,24.8
	c3.2,1,4.4,2.4,4.4,5.9c0.4,25.8,1,51.6,1.5,77.5c0,1.1-0.1,2.3-0.2,4c-29.6-9.7-58.8-19.3-88.4-29c0,37.5,0,74.3,0,111.7
	c48.7,0,97.2,0,145.6,0c0,27.3,0,54.7,0,82c-48.4,0-96.9,0-145.9,0c0,2.6,0,4.6,0,6.5c0,50.2-0.1,100.3-0.1,150.5
	c-27.3,0-54.7,0-82,0c0-52.1,0-104.2,0-156.9c-2.6,0-4.6,0-6.5,0C94.3,435.1,47.2,435,0,435c0-27.3,0-54.7,0-82
	c49.1,0,98.2,0,147.6,0c0.1-1.7,0.3-2.8,0.3-4c0-43.7,0-87.3,0.1-131c0-3.5-1.5-4.4-4.3-5.3c-27-8.8-54-17.9-81.1-26.6
	c-3.7-1.2-4.7-2.9-4.7-6.6c0.2-12.8,0.1-25.7,0.1-38.5c0-12.8,0-25.6,0-39c30,9.5,59.6,18.9,90,28.6C148,86.5,148,43.3,148,0z"/>
</svg>
