<?xml version="1.0" encoding="utf-8"?>
<!-- Generator: Adobe Illustrator 18.0.0, SVG Export Plug-In . SVG Version: 6.00 Build 0)  -->
<!DOCTYPE svg PUBLIC "-//W3C//DTD SVG 1.1//EN" "http://www.w3.org/Graphics/SVG/1.1/DTD/svg11.dtd">
<svg version="1.1" id="Layer_1" xmlns="http://www.w3.org/2000/svg" xmlns:xlink="http://www.w3.org/1999/xlink" x="0px" y="0px"
	 viewBox="221 231.9 221.5 143.1" enable-background="new 221 231.9 221.5 143.1" xml:space="preserve">
<g>
	<path d="M225.8,235.3c34.2,0,68.1,0,102.4,0c0,11.3,0,22.5,0,34.3c-21.2,0-42.4,0-64,0c0,6.9,0,13.3,0,20c21.3,0,42.4,0,64,0
		c0,11.6,0,22.8,0,34.5c-21.2,0-42.4,0-64,0c0,16,0,31.5,0,47.4c-13,0-25.5,0-38.4,0C225.8,326.4,225.8,281.2,225.8,235.3z"/>
	<path d="M399.4,371.5c0-15.8,0-31.3,0-47.2c-21.5,0-42.6,0-64.1,0c0-11.5,0-22.7,0-34.3c21.2,0,42.4,0,64,0c0-6.8,0-13.2,0-20.1
		c-21.3,0-42.6,0-64.1,0c0-11.7,0-22.8,0-34.4c34.2,0,68.3,0,102.6,0c0,45.4,0,90.5,0,136C425.1,371.5,412.4,371.5,399.4,371.5z"/>
</g>
</svg>
